<svg width="144" height="48" viewBox="0 0 144 48" fill="none" xmlns="http://www.w3.org/2000/svg">
<g clip-path="url(#clip0_268_148)">
<rect width="144" height="48" rx="10" fill="#E8E8E8"/>
<path d="M31.2793 9.37517C38.6621 9.37517 38.6621 9.37517 39.4824 9.78533C39.8926 10.2379 39.8926 10.2379 40.3027 10.7723C40.4381 10.947 40.5734 11.1218 40.7129 11.3018C40.8482 11.4781 40.9836 11.6544 41.123 11.8361C41.3515 12.1101 41.3515 12.1101 41.5845 12.3897C41.9434 12.8615 41.9434 12.8615 41.9434 13.2717C42.0787 13.2717 42.2141 13.2717 42.3535 13.2717C42.699 13.6744 43.0211 14.0793 43.3405 14.5021C43.5445 14.7672 43.7487 15.0321 43.9533 15.2968C44.0605 15.4359 44.1677 15.5749 44.2782 15.7182C44.8221 16.4155 45.3824 17.0991 45.9424 17.7834C46.9192 18.9793 47.8814 20.1856 48.8287 21.4051C49.1836 21.8607 49.5325 22.2964 49.9414 22.7053C49.9435 22.5413 49.9456 22.3773 49.9478 22.2084C49.9679 20.6662 49.9889 19.1241 50.011 17.582C50.0223 16.7891 50.0333 15.9962 50.0434 15.2033C50.0532 14.4387 50.0639 13.6742 50.0753 12.9096C50.0795 12.6173 50.0833 12.325 50.0868 12.0326C50.0917 11.6245 50.098 11.2164 50.1044 10.8084C50.1076 10.5757 50.1108 10.343 50.114 10.1032C50.1465 9.58025 50.1465 9.58025 50.3516 9.37517C50.896 9.35447 51.4349 9.34652 51.9794 9.34794C52.1425 9.34774 52.3056 9.34755 52.4736 9.34734C52.8191 9.3472 53.1646 9.34758 53.51 9.34844C54.0407 9.34954 54.5713 9.34845 55.102 9.34714C55.4369 9.34727 55.7717 9.34753 56.1066 9.34794C56.2664 9.34752 56.4261 9.34711 56.5908 9.34668C57.7108 9.3516 57.7108 9.3516 57.9395 9.58025C57.9592 9.91499 57.9644 10.2506 57.9641 10.5859C57.9645 10.9124 57.9645 10.9124 57.965 11.2456C57.9642 11.4865 57.9635 11.7274 57.9627 11.9756C57.9628 12.2276 57.9628 12.4797 57.9628 12.7394C57.9627 13.4325 57.9617 14.1257 57.9602 14.8189C57.959 15.5425 57.9588 16.2662 57.9586 16.9899C57.958 18.3611 57.9563 19.7324 57.9542 21.1036C57.9519 22.6644 57.9508 24.2251 57.9498 25.7859C57.9476 28.9973 57.944 32.2087 57.9395 35.4201C56.9003 35.4918 55.8626 35.5434 54.8215 35.5778C54.4686 35.5921 54.1159 35.6117 53.7636 35.6367C50.9247 35.8332 50.9247 35.8332 49.9786 35.1513C49.3122 34.4868 48.8194 33.7313 48.338 32.9272C47.9293 32.2893 47.4295 31.7318 46.9293 31.1647C46.0449 30.1359 46.0449 30.1359 46.0449 29.6779C45.9096 29.6779 45.7742 29.6779 45.6348 29.6779C45.2557 29.2323 44.8981 28.785 44.5453 28.3193C44.3497 28.0644 44.154 27.8096 43.9581 27.555C43.8147 27.3674 43.8147 27.3674 43.6684 27.1759C43.386 26.8159 43.0921 26.4692 42.7933 26.1227C42.3535 25.5763 42.3535 25.5763 42.3535 25.1662C42.2182 25.1662 42.0828 25.1662 41.9434 25.1662C41.5518 24.7034 41.181 24.2389 40.8154 23.7563C40.6127 23.4918 40.4098 23.2274 40.2066 22.9632C40.1169 22.8451 40.0271 22.7269 39.9346 22.6052C39.674 22.2662 39.674 22.2662 39.2773 21.8849C39.2097 26.3515 39.142 30.8181 39.0723 35.4201C36.5006 35.4201 33.9289 35.4201 31.2793 35.4201C31.2793 26.8253 31.2793 18.2304 31.2793 9.37517Z" fill="#E82922"/>
<path d="M88.3982 9.34474C88.6044 9.3437 88.6044 9.3437 88.8147 9.34265C89.2714 9.3407 89.7281 9.3403 90.1848 9.34008C90.5038 9.33942 90.8228 9.33873 91.1417 9.33801C91.8127 9.33678 92.4837 9.3364 93.1547 9.33653C94.0069 9.33655 94.859 9.33377 95.7112 9.33022C96.3717 9.32791 97.0322 9.32752 97.6928 9.32763C98.0063 9.32739 98.3199 9.3265 98.6335 9.32489C102.392 9.3075 106.157 9.61103 109.209 12.0405C109.462 12.236 109.462 12.236 109.719 12.4355C112.112 14.4217 113.524 17.1008 113.829 20.19C114.126 24.0203 113.743 27.6671 111.304 30.7924C109.311 33.0985 106.85 34.5231 103.877 35.2144C103.732 35.2499 103.586 35.2854 103.436 35.322C102.705 35.4439 101.987 35.4464 101.248 35.4427C101.087 35.4428 100.927 35.4428 100.761 35.4428C100.243 35.4427 99.7253 35.4411 99.2074 35.4395C98.8868 35.4392 98.5661 35.439 98.2454 35.4389C97.0593 35.4378 95.8731 35.4349 94.6869 35.4323C92.0348 35.428 89.3828 35.4238 86.6504 35.4194C86.6504 26.8923 86.6504 18.3652 86.6504 9.57961C87.2379 9.28583 87.7414 9.3468 88.3982 9.34474ZM94.8535 16.1421C94.8535 20.338 94.8535 24.5339 94.8535 28.8569C100.38 29.0909 100.38 29.0909 104.761 26.5498C105.871 24.7416 105.996 22.5876 105.627 20.5281C105.148 18.8772 104.163 17.6569 102.712 16.7589C100.143 15.6429 97.7572 16.1421 94.8535 16.1421Z" fill="#1A73BA"/>
<path d="M61.1279 9.34868C61.3295 9.3481 61.5311 9.34752 61.7387 9.34693C62.0732 9.34755 62.0732 9.34755 62.4144 9.34819C62.6478 9.34783 62.8812 9.34747 63.1217 9.3471C63.8976 9.34619 64.6735 9.34679 65.4494 9.34749C65.9861 9.34735 66.5228 9.34715 67.0594 9.34689C68.1861 9.34652 69.3128 9.34701 70.4394 9.34799C71.7431 9.3491 73.0467 9.34874 74.3504 9.34761C75.6027 9.34657 76.8551 9.34668 78.1074 9.34728C78.6411 9.34742 79.1748 9.34725 79.7085 9.34677C80.4534 9.34625 81.1984 9.34704 81.9433 9.34819C82.1659 9.34777 82.3885 9.34736 82.6178 9.34693C82.921 9.3478 82.921 9.3478 83.2304 9.34868C83.4067 9.34876 83.583 9.34884 83.7646 9.34891C84.1892 9.37472 84.1892 9.37472 84.5994 9.5798C84.5994 11.7454 84.5994 13.911 84.5994 16.1423C81.8923 16.1423 79.1853 16.1423 76.3963 16.1423C76.3963 22.5038 76.3963 28.8653 76.3963 35.4196C73.6892 35.4196 70.9822 35.4196 68.1931 35.4196C68.1931 29.0581 68.1931 22.6966 68.1931 16.1423C65.4861 16.1423 62.7791 16.1423 59.99 16.1423C59.9858 15.0637 59.9815 13.9851 59.9772 12.8739C59.9753 12.5331 59.9735 12.1924 59.9715 11.8413C59.971 11.5754 59.9705 11.3094 59.97 11.0354C59.9684 10.8244 59.9684 10.8244 59.9668 10.6092C59.9667 10.266 59.9772 9.92277 59.99 9.5798C60.3197 9.25009 60.6716 9.34888 61.1279 9.34868Z" fill="#77C04B"/>
<path d="M86.6504 9.58008C86.7857 9.58008 86.9211 9.58008 87.0605 9.58008C87.0605 17.9719 87.0605 26.3637 87.0605 35.0098C92.0009 35.0098 96.9412 35.0098 102.031 35.0098C102.099 35.1451 102.167 35.2805 102.236 35.4199C97.093 35.4199 91.9496 35.4199 86.6504 35.4199C86.6504 26.8928 86.6504 18.3656 86.6504 9.58008Z" fill="#106BAB"/>
<path d="M57.7344 12.8613C57.8021 12.8613 57.8697 12.8613 57.9395 12.8613C57.9395 20.3057 57.9395 27.75 57.9395 35.4199C55.4354 35.4199 52.9314 35.4199 50.3516 35.4199C50.2839 35.2169 50.2162 35.0139 50.1465 34.8047C50.3495 34.7032 50.3495 34.7032 50.5566 34.5996C50.5566 34.735 50.5566 34.8703 50.5566 35.0098C52.8576 35.0098 55.1586 35.0098 57.5293 35.0098C57.5282 34.3534 57.5271 33.697 57.526 33.0208C57.5227 30.8565 57.5204 28.6923 57.5187 26.5281C57.5176 25.2154 57.5161 23.9027 57.5138 22.59C57.5116 21.3241 57.5104 20.0583 57.5098 18.7924C57.5095 18.3085 57.5087 17.8246 57.5076 17.3407C57.5061 16.665 57.5059 15.9893 57.506 15.3136C57.5053 15.1118 57.5045 14.91 57.5038 14.7021C57.5041 14.5186 57.5043 14.3351 57.5046 14.1461C57.5044 13.9861 57.5043 13.8262 57.5041 13.6614C57.5293 13.2715 57.5293 13.2715 57.7344 12.8613Z" fill="#DE2220"/>
<path d="M60.5953 9.34989C60.7721 9.35008 60.9488 9.35027 61.1309 9.35046C61.4342 9.35004 61.4342 9.35004 61.7436 9.34961C61.9672 9.35035 62.1908 9.35108 62.4212 9.35184C62.6553 9.35181 62.8894 9.35178 63.1305 9.35175C63.9084 9.3519 64.6862 9.3535 65.4641 9.3551C66.0018 9.35548 66.5394 9.35577 67.0771 9.35598C68.3503 9.35662 69.6235 9.3583 70.8967 9.36036C72.3459 9.36264 73.795 9.36377 75.2442 9.3648C78.226 9.36695 81.2077 9.37056 84.1895 9.37513C84.291 9.57815 84.291 9.57815 84.3946 9.78528C76.4765 9.78528 68.5585 9.78528 60.4005 9.78528C60.4005 11.7479 60.4005 13.7105 60.4005 15.7325C60.3328 15.7325 60.2651 15.7325 60.1954 15.7325C60.1611 14.8602 60.1281 13.9877 60.0965 13.1152C60.0855 12.8182 60.0742 12.5212 60.0624 12.2242C60.0457 11.7982 60.0303 11.3721 60.0151 10.9461C60.0055 10.6894 59.9958 10.4327 59.9858 10.1683C59.9918 9.38797 59.9918 9.38797 60.5953 9.34989Z" fill="#8EC062"/>
<path d="M39.4824 9.78467C39.7388 10.3102 39.7388 10.3102 39.8926 10.8101C39.6219 10.8777 39.3512 10.9454 39.0723 11.0151C39.0723 10.7444 39.0723 10.4737 39.0723 10.1948C36.6359 10.1271 34.1996 10.0595 31.6895 9.98975C31.6895 18.2462 31.6895 26.5026 31.6895 35.0093C33.9904 35.0093 36.2914 35.0093 38.6621 35.0093C38.6621 32.5053 38.6621 30.0013 38.6621 27.4214C38.7298 27.4214 38.7975 27.4214 38.8672 27.4214C38.8672 29.9931 38.8672 32.5647 38.8672 35.2144C36.4309 35.2144 33.9945 35.2144 31.4844 35.2144C31.4844 26.8226 31.4844 18.4308 31.4844 9.78467C38.6621 9.57959 38.6621 9.57959 39.4824 9.78467Z" fill="#DC1E1A"/>
<path d="M109.004 12.2461C110.714 12.8151 111.777 14.4798 112.63 16C114.201 19.2162 114.45 23.5924 113.311 27.0117C113.175 27.0117 113.04 27.0117 112.9 27.0117C112.968 26.6057 113.036 26.1996 113.105 25.7812C112.97 25.7812 112.835 25.7812 112.695 25.7812C112.628 25.5105 112.56 25.2398 112.49 24.9609C112.693 24.9609 112.896 24.9609 113.105 24.9609C113.111 24.1791 113.115 23.3972 113.118 22.6154C113.12 22.3961 113.122 22.1768 113.123 21.9509C113.128 20.3664 113.102 18.7958 112.682 17.2577C112.587 16.9087 112.587 16.9087 112.49 16.5527C112.355 16.5527 112.22 16.5527 112.08 16.5527C112.012 16.1467 111.945 15.7406 111.875 15.3223C111.74 15.3223 111.604 15.3223 111.465 15.3223C111.229 14.985 111.229 14.985 110.978 14.5404C110.591 13.8898 110.255 13.4904 109.619 13.0664C109.619 12.9311 109.619 12.7957 109.619 12.6562C109.416 12.5886 109.213 12.5209 109.004 12.4512C109.004 12.3835 109.004 12.3158 109.004 12.2461Z" fill="#2171AF"/>
<path d="M94.6484 15.7326C95.4579 15.7172 96.2672 15.7061 97.0767 15.6988C97.485 15.6942 97.8932 15.6864 98.3014 15.6785C100.474 15.6621 102.587 15.8914 104.287 17.3732C105.643 18.9479 106.208 20.412 106.184 22.5002C106.186 22.7072 106.186 22.7072 106.189 22.9183C106.185 23.8843 106.02 24.6688 105.723 25.5764C105.52 25.4748 105.52 25.4748 105.312 25.3713C105.346 25.1936 105.38 25.016 105.415 24.8329C105.728 22.5664 105.701 20.4178 104.454 18.4499C103.479 17.1919 102.144 16.5964 100.596 16.3478C99.6051 16.272 98.6151 16.2439 97.6221 16.2197C97.3556 16.2117 97.0891 16.2038 96.8146 16.1956C96.1609 16.1764 95.5073 16.1588 94.8535 16.1428C94.7858 16.0074 94.7182 15.8721 94.6484 15.7326Z" fill="#1066AA"/>
<path d="M57.5293 30.7031C57.597 30.7031 57.6646 30.7031 57.7344 30.7031C57.7696 31.1046 57.8035 31.5063 57.8369 31.908C57.8559 32.1316 57.875 32.3553 57.8946 32.5857C57.9486 33.529 57.9395 34.4751 57.9395 35.4199C55.4354 35.4199 52.9314 35.4199 50.3516 35.4199C50.2839 35.2169 50.2162 35.0139 50.1465 34.8047C50.2818 34.737 50.4172 34.6693 50.5566 34.5996C50.5566 34.735 50.5566 34.8703 50.5566 35.0098C52.8576 35.0098 55.1586 35.0098 57.5293 35.0098C57.5293 33.5886 57.5293 32.1674 57.5293 30.7031Z" fill="#DC2C2C"/>
<path d="M109.004 12.2461C110.736 12.8224 111.77 14.5007 112.643 16.0288C113.217 17.1971 113.557 18.3241 113.516 19.6289C113.212 19.0515 112.977 18.479 112.772 17.8601C112.719 17.701 112.665 17.5418 112.61 17.3779C112.49 16.9629 112.49 16.9629 112.49 16.5527C112.355 16.5527 112.22 16.5527 112.08 16.5527C112.012 16.1467 111.945 15.7406 111.875 15.3223C111.74 15.3223 111.604 15.3223 111.465 15.3223C111.229 14.985 111.229 14.985 110.978 14.5404C110.591 13.8898 110.255 13.4904 109.619 13.0664C109.619 12.9311 109.619 12.7957 109.619 12.6562C109.416 12.5886 109.213 12.5209 109.004 12.4512C109.004 12.3835 109.004 12.3158 109.004 12.2461Z" fill="#2B75AB"/>
<path d="M111.875 29.0625C111.943 29.2655 112.01 29.4686 112.08 29.6777C110.992 31.6066 109.161 33.1102 107.158 33.9844C107.158 33.7813 107.158 33.5783 107.158 33.3691C107.585 33.0615 107.585 33.0615 108.145 32.7539C108.8 32.3908 109.3 32.0528 109.824 31.5234C109.96 31.5234 110.095 31.5234 110.234 31.5234C110.289 31.4061 110.343 31.2887 110.399 31.1678C110.656 30.6811 110.951 30.2679 111.285 29.8315C111.396 29.6867 111.506 29.5418 111.62 29.3925C111.704 29.2836 111.788 29.1747 111.875 29.0625Z" fill="#256CA3"/>
<path d="M104.082 33.9844C104.894 33.9844 105.706 33.9844 106.543 33.9844C105.41 35.1175 103.787 35.2764 102.236 35.4199C102.169 35.2846 102.101 35.1492 102.031 35.0098C102.587 34.732 103.059 34.7914 103.672 34.8047C103.807 34.534 103.943 34.2633 104.082 33.9844Z" fill="#206EB1"/>
<path d="M43.7891 15.7324C44.4564 16.0179 44.8232 16.334 45.2727 16.9004C45.4491 17.1205 45.4491 17.1205 45.6292 17.345C45.8096 17.5746 45.8096 17.5746 45.9937 17.8088C46.1171 17.9635 46.2406 18.1181 46.3678 18.2775C46.6717 18.6585 46.9741 19.0407 47.2754 19.4238C47.2077 19.5592 47.14 19.6945 47.0703 19.834C46.4739 19.3789 46.0545 19.0281 45.6348 18.3984C45.4317 18.3984 45.2287 18.3984 45.0195 18.3984C44.9519 18.0601 44.8842 17.7217 44.8145 17.373C44.5437 17.373 44.273 17.373 43.9941 17.373C43.9984 17.2165 44.0026 17.06 44.007 16.8988C44.0207 16.3268 44.0207 16.3268 43.7891 15.7324Z" fill="#DC241F"/>
<path d="M31.6895 11.0156C31.9602 11.0156 32.2309 11.0156 32.5098 11.0156C32.5326 12.1349 32.4927 13.1925 32.3047 14.2969C32.1017 14.3646 31.8986 14.4322 31.6895 14.502C31.6895 13.3515 31.6895 12.201 31.6895 11.0156Z" fill="#E92A2F"/>
<path d="M45.8398 28.6523C46.25 29.4214 46.25 29.4214 46.25 29.8828C46.3854 29.8828 46.5207 29.8828 46.6602 29.8828C46.9029 30.1752 46.9029 30.1752 47.16 30.5621C47.5047 31.0776 47.8621 31.4971 48.3008 31.9336C48.5231 32.2165 48.7409 32.5029 48.9545 32.7924C49.0631 32.9391 49.1718 33.0858 49.2837 33.237C49.3654 33.3483 49.4471 33.4596 49.5312 33.5742C49.4636 33.7096 49.3959 33.8449 49.3262 33.9844C46.0449 30.3715 46.0449 30.3715 46.0449 29.6777C45.9096 29.6777 45.7742 29.6777 45.6348 29.6777C45.5671 29.4747 45.4994 29.2717 45.4297 29.0625C45.565 28.9271 45.7004 28.7918 45.8398 28.6523Z" fill="#D32424"/>
<path d="M104.902 25.9863C105.038 25.9863 105.173 25.9863 105.312 25.9863C105.035 27.1312 104.193 27.7985 103.262 28.4473C102.772 28.6567 102.353 28.7586 101.826 28.8574C101.691 28.7221 101.555 28.5867 101.416 28.4473C101.661 28.3669 101.907 28.2865 102.159 28.2037C103.38 27.7457 104.128 27.0316 104.902 25.9863Z" fill="#186CAC"/>
<path d="M79.0625 9.78516C80.7544 9.78516 82.4463 9.78516 84.1895 9.78516C84.1218 9.98818 84.0541 10.1912 83.9844 10.4004C83.9844 10.265 83.9844 10.1297 83.9844 9.99023C83.1046 9.99023 82.2248 9.99023 81.3184 9.99023C81.3184 10.1256 81.3184 10.2609 81.3184 10.4004C81.1153 10.4004 80.9123 10.4004 80.7031 10.4004C80.7031 10.265 80.7031 10.1297 80.7031 9.99023C80.1617 9.99023 79.6203 9.99023 79.0625 9.99023C79.0625 9.92256 79.0625 9.85488 79.0625 9.78516Z" fill="#75BF3A"/>
<path d="M40.3027 11.2207C40.9538 11.7134 41.504 12.1676 41.9434 12.8613C41.9434 12.9967 41.9434 13.132 41.9434 13.2715C42.0787 13.2715 42.2141 13.2715 42.3535 13.2715C42.2858 13.4745 42.2182 13.6775 42.1484 13.8867C41.5332 13.6816 41.5332 13.6816 41.2256 13.092C41.1241 12.8806 41.0226 12.6691 40.918 12.4512C40.8038 12.337 40.6896 12.2228 40.5719 12.1051C40.4831 12.0163 40.3943 11.9275 40.3027 11.8359C40.3027 11.6329 40.3027 11.4299 40.3027 11.2207Z" fill="#DD1B1B"/>
<path d="M39.2773 21.6797C39.7644 21.8207 39.7644 21.8207 40.3027 22.0898C40.4467 22.4286 40.5836 22.7705 40.7129 23.1152C41.1266 23.3909 41.1266 23.3909 41.5332 23.5254C41.5332 23.7284 41.5332 23.9314 41.5332 24.1406C41.3979 24.1406 41.2625 24.1406 41.123 24.1406C40.8325 23.8185 40.5568 23.4828 40.2899 23.1409C40.1437 22.9553 39.9975 22.7697 39.8469 22.5785C39.4824 22.0898 39.4824 22.0898 39.2773 21.6797Z" fill="#DC1B1D"/>
<path d="M57.9395 9.58008C57.8718 10.5952 57.8041 11.6104 57.7344 12.6562C57.6667 12.6562 57.599 12.6562 57.5293 12.6562C57.5293 11.7765 57.5293 10.8967 57.5293 9.99023C57.0556 9.99023 56.5818 9.99023 56.0938 9.99023C56.0938 9.92256 56.0938 9.85488 56.0938 9.78516C57.478 9.58008 57.478 9.58008 57.9395 9.58008Z" fill="#DB211C"/>
<path d="M45.6348 17.7832C46.1816 18.3301 46.7285 18.877 47.2754 19.4238C47.2077 19.5592 47.14 19.6945 47.0703 19.834C46.4739 19.3789 46.0545 19.0281 45.6348 18.3984C45.4317 18.3984 45.2287 18.3984 45.0195 18.3984C45.0195 18.2631 45.0195 18.1277 45.0195 17.9883C45.2226 17.9206 45.4256 17.8529 45.6348 17.7832Z" fill="#E01716"/>
<path d="M45.8398 28.6523C46.25 29.4214 46.25 29.4214 46.25 29.8828C46.3854 29.8828 46.5207 29.8828 46.6602 29.8828C46.8632 30.1874 46.8632 30.1874 47.0703 30.498C47.0026 30.7011 46.935 30.9041 46.8652 31.1133C46.0449 30.1392 46.0449 30.1392 46.0449 29.6777C45.9096 29.6777 45.7742 29.6777 45.6348 29.6777C45.5671 29.4747 45.4994 29.2717 45.4297 29.0625C45.565 28.9271 45.7004 28.7918 45.8398 28.6523Z" fill="#DC1A1A"/>
<path d="M106.338 10.8109C107.084 10.7231 107.373 10.8162 108.043 11.1954C108.224 11.3392 108.406 11.483 108.594 11.6312C108.594 11.7665 108.594 11.9019 108.594 12.0413C108.45 11.9821 108.306 11.9229 108.158 11.8619C107.557 11.6268 106.951 11.4207 106.338 11.221C106.338 11.0857 106.338 10.9503 106.338 10.8109Z" fill="#226CA9"/>
<path d="M38.8672 20.8594C39.0702 20.9271 39.2732 20.9947 39.4824 21.0645C40.0234 20.9837 40.0234 20.9837 40.5078 20.8594C40.4437 21.2567 40.4437 21.2567 40.3027 21.6797C40.0997 21.7474 39.8967 21.815 39.6875 21.8848C39.4098 21.6157 39.1364 21.3421 38.8672 21.0645C38.8672 20.9968 38.8672 20.9291 38.8672 20.8594Z" fill="#E3282E"/>
<path d="M46.25 19.2188C46.8995 19.5435 47.2206 19.7217 47.5446 20.3851C47.5911 20.5416 47.6376 20.6981 47.6855 20.8594C47.1206 20.7815 46.9021 20.6938 46.5063 20.2698C46.25 19.834 46.25 19.834 46.25 19.2188Z" fill="#E5292D"/>
<path d="M42.1484 13.6816C42.7623 13.9067 42.9372 14.0255 43.2251 14.6301C43.2759 14.7909 43.3266 14.9516 43.3789 15.1172C43.0405 15.0495 42.7021 14.9818 42.3535 14.9121C42.2858 14.5061 42.2182 14.1 42.1484 13.6816Z" fill="#DA2523"/>
<path d="M45.0195 28.2422C45.3579 28.2422 45.6963 28.2422 46.0449 28.2422C46.1126 28.5806 46.1803 28.9189 46.25 29.2676C46.1146 29.1322 45.9793 28.9969 45.8398 28.8574C45.5691 28.8574 45.2984 28.8574 45.0195 28.8574C45.0195 28.6544 45.0195 28.4514 45.0195 28.2422Z" fill="#E2242E"/>
<path d="M103.877 34.8047C103.877 34.9401 103.877 35.0754 103.877 35.2149C103.336 35.2825 102.794 35.3502 102.236 35.4199C102.169 35.2846 102.101 35.1492 102.031 35.0098C102.638 34.7066 103.209 34.7923 103.877 34.8047Z" fill="#2269A5"/>
<path d="M39.8926 11.2207C40.0279 11.2207 40.1633 11.2207 40.3027 11.2207C40.5058 11.6268 40.7088 12.0328 40.918 12.4512C40.7149 12.4512 40.5119 12.4512 40.3027 12.4512C40.3027 12.3158 40.3027 12.1805 40.3027 12.041C40.0997 12.1087 39.8967 12.1764 39.6875 12.2461C39.7552 11.9077 39.8229 11.5693 39.8926 11.2207Z" fill="#E82F2A"/>
<path d="M48.916 22.0898C49.1867 22.2252 49.4574 22.3605 49.7363 22.5C49.7363 22.6354 49.7363 22.7707 49.7363 22.9102C49.601 22.9102 49.4656 22.9102 49.3262 22.9102C49.2585 23.0455 49.1908 23.1809 49.1211 23.3203C49.1211 23.185 49.1211 23.0496 49.1211 22.9102C48.9857 22.9102 48.8504 22.9102 48.7109 22.9102C48.7786 22.6395 48.8463 22.3688 48.916 22.0898Z" fill="#DD2B27"/>
<path d="M112.49 27.4219C112.693 27.4896 112.896 27.5572 113.105 27.627C112.801 28.3375 112.801 28.3375 112.49 29.0625C112.355 28.9948 112.22 28.9271 112.08 28.8574C112.215 28.3837 112.351 27.91 112.49 27.4219Z" fill="#2872A6"/>
</g>
<defs>
<clipPath id="clip0_268_148">
<rect width="144" height="48" rx="10" fill="white"/>
</clipPath>
</defs>
</svg>
