<svg width="144" height="48" viewBox="0 0 144 48" fill="none" xmlns="http://www.w3.org/2000/svg">
<g clip-path="url(#clip0_274_185)">
<rect width="144" height="48" rx="10" fill="#E8E8E8"/>
<g clip-path="url(#clip1_274_185)">
<path d="M78.7953 6.04872C78.8594 6.04814 78.9235 6.04755 78.9895 6.04695C79.2 6.04541 79.4104 6.04573 79.6209 6.04621C79.769 6.04582 79.9171 6.04537 80.0652 6.04486C80.3755 6.0441 80.6859 6.04431 80.9963 6.04515C81.39 6.04612 81.7836 6.04442 82.1773 6.04193C82.4834 6.04036 82.7896 6.0404 83.0958 6.04088C83.2406 6.04089 83.3855 6.04039 83.5304 6.03933C84.7799 6.03143 85.9667 6.19895 87.1221 6.70433C87.1818 6.72987 87.2415 6.75542 87.303 6.78174C89.6421 7.8112 91.2158 9.87396 92.1454 12.2002C92.3507 12.7574 92.508 13.3246 92.6551 13.8995C92.6821 13.9971 92.6821 13.9971 92.7096 14.0968C93.3228 16.376 93.2369 19.266 92.6551 21.5459C92.6369 21.6193 92.6187 21.6926 92.6 21.7682C91.9403 24.3501 90.5537 26.836 88.222 28.2535C86.9406 28.9929 85.5821 29.4565 84.09 29.4623C84.0266 29.4629 83.9631 29.4635 83.8976 29.464C83.6894 29.4657 83.4812 29.4667 83.2729 29.4676C83.2013 29.4679 83.1297 29.4682 83.0559 29.4686C82.6771 29.4704 82.2983 29.4716 81.9196 29.4724C81.53 29.4733 81.1405 29.4763 80.7509 29.4796C80.4498 29.4819 80.1486 29.4826 79.8474 29.4829C79.7039 29.4833 79.5603 29.4843 79.4168 29.4858C77.9799 29.5007 77.9799 29.5007 77.3622 29.1075C77.2728 29.0514 77.1834 28.9953 77.0913 28.9375C76.3528 28.2607 76.2118 27.2309 76.1629 26.2835C76.1468 25.7671 76.1486 25.2506 76.1494 24.7339C76.149 24.5615 76.1486 24.389 76.1481 24.2165C76.1469 23.7513 76.1469 23.2861 76.1471 22.821C76.1472 22.4314 76.1468 22.0419 76.1464 21.6524C76.1454 20.733 76.1454 19.8137 76.1459 18.8944C76.1464 17.9483 76.1454 17.0022 76.1435 16.056C76.142 15.2412 76.1415 14.4265 76.1418 13.6117C76.142 13.1261 76.1418 12.6405 76.1406 12.155C76.1395 11.6984 76.1397 11.2419 76.1408 10.7853C76.141 10.6185 76.1407 10.4516 76.14 10.2848C76.13 7.71137 76.13 7.71137 77.01 6.76274C77.5515 6.26002 78.0562 6.04394 78.7953 6.04872Z" fill="#D81E22"/>
<path d="M43.0819 6.05618C43.7615 6.41628 44.1541 6.98376 44.5674 7.61236C44.696 7.80548 44.8246 7.99852 44.9534 8.19149C45.2228 8.59529 45.4919 8.99922 45.7607 9.4034C45.9165 9.63768 46.0725 9.8719 46.2284 10.1061C46.3069 10.2241 46.3853 10.3421 46.4638 10.4601C46.9284 11.1591 47.3972 11.855 47.8738 12.546C48.2906 13.1504 48.7019 13.7584 49.1128 14.3668C49.1956 14.4892 49.2784 14.6116 49.3612 14.7341C49.8402 15.4426 50.3186 16.1516 50.7968 16.8608C50.9012 17.0156 51.0055 17.1704 51.1099 17.3251C51.3117 17.6243 51.5133 17.9236 51.7149 18.2229C51.808 18.3609 51.9011 18.499 51.9942 18.637C52.036 18.6991 52.0778 18.7612 52.1208 18.8252C52.1605 18.884 52.2001 18.9428 52.241 19.0033C52.2749 19.0537 52.3088 19.104 52.3438 19.1559C52.5239 19.4167 52.7088 19.6741 52.8936 19.9317C52.8937 19.8699 52.8938 19.8082 52.894 19.7446C52.8971 18.239 52.9021 16.7334 52.9092 15.2279C52.9126 14.4998 52.9154 13.7717 52.9166 13.0436C52.9177 12.4086 52.92 11.7737 52.9237 11.1388C52.9256 10.8029 52.927 10.467 52.9269 10.1311C52.9268 9.81429 52.9284 9.49751 52.9311 9.1807C52.9321 9.01033 52.9315 8.83995 52.9309 8.66958C52.9412 7.76773 53.1017 6.97586 53.7452 6.30907C54.214 5.91532 54.7132 5.76854 55.3216 5.79499C55.6595 5.84948 55.9215 5.98451 56.2071 6.16802C56.2807 6.21358 56.3543 6.25914 56.4301 6.30608C57.2395 7.11553 57.3368 8.00648 57.3387 9.09492C57.3394 9.21104 57.3403 9.32716 57.3412 9.44328C57.3436 9.75916 57.3448 10.075 57.3459 10.3909C57.3473 10.7267 57.3496 11.0624 57.3518 11.3981C57.3558 12.0434 57.359 12.6886 57.3617 13.3338C57.364 13.8511 57.3665 14.3684 57.3692 14.8857C57.3698 14.9952 57.3698 14.9952 57.3704 15.107C57.3712 15.2544 57.3719 15.4018 57.3727 15.5491C57.3795 16.8447 57.3853 18.1403 57.3907 19.4359C57.3946 20.3831 57.3995 21.3304 57.4057 22.2777C57.4098 22.9036 57.4131 23.5295 57.4153 24.1554C57.4165 24.4837 57.4181 24.8121 57.4207 25.1404C57.4233 25.4888 57.424 25.8372 57.4244 26.1856C57.4255 26.2813 57.4265 26.377 57.4276 26.4756C57.4251 27.3549 57.2627 28.3425 56.6528 29.0175C56.2336 29.4105 55.8202 29.6883 55.2347 29.7098C54.5179 29.6671 53.8989 29.377 53.4034 28.8526C52.9656 28.3252 52.5874 27.7611 52.2189 27.1846C51.718 26.4059 51.2045 25.6358 50.6897 24.8663C49.1977 22.6358 49.1977 22.6358 48.4727 21.5142C48.1794 21.0608 47.8811 20.6108 47.5812 20.1617C47.0472 19.362 46.5172 18.5598 45.9883 17.7567C45.8341 17.5225 45.6797 17.2885 45.5254 17.0545C45.4263 16.9041 45.3273 16.7537 45.2282 16.6033C45.1597 16.4995 45.1597 16.4995 45.0898 16.3936C45.0472 16.3288 45.0046 16.264 44.9607 16.1973C44.9236 16.141 44.8865 16.0846 44.8482 16.0266C44.7221 15.8298 44.6024 15.6294 44.4825 15.4288C44.4823 15.4895 44.4822 15.5502 44.4821 15.6128C44.4789 17.0943 44.4739 18.5758 44.4668 20.0573C44.4635 20.7738 44.4607 21.4903 44.4594 22.2067C44.4583 22.8317 44.456 23.4566 44.4523 24.0815C44.4504 24.412 44.4491 24.7424 44.4492 25.0729C44.4492 25.3849 44.4477 25.6968 44.445 26.0087C44.4439 26.176 44.4445 26.3433 44.4452 26.5106C44.4331 27.5555 44.2389 28.4421 43.4872 29.1951C43.0307 29.5884 42.5927 29.6706 42.0053 29.6521C41.3966 29.5643 40.8849 29.2551 40.5102 28.77C40.078 28.0667 39.9668 27.3681 39.9676 26.5598C39.9674 26.4828 39.9671 26.4058 39.9668 26.3264C39.9661 26.0683 39.966 25.8102 39.9658 25.552C39.9655 25.367 39.965 25.1819 39.9646 24.9968C39.9635 24.4939 39.9629 23.9909 39.9625 23.488C39.9623 23.1736 39.9619 22.8592 39.9615 22.5448C39.9604 21.5606 39.9596 20.5764 39.9592 19.5921C39.9592 19.4801 39.9592 19.368 39.9591 19.2525C39.9591 19.1964 39.9591 19.1402 39.9591 19.0824C39.9587 18.1172 39.957 17.152 39.9549 16.1868C39.9531 15.3088 39.9522 14.4308 39.9521 13.5528C39.952 13.0287 39.9515 12.5047 39.95 11.9806C39.9486 11.4872 39.9484 10.9938 39.9492 10.5005C39.9492 10.3199 39.9489 10.1394 39.948 9.9588C39.9367 7.38104 39.9367 7.38104 40.7979 6.44149C41.5045 5.79509 42.21 5.67702 43.0819 6.05618Z" fill="#D81E22"/>
<path d="M61.7589 6.07027C61.8511 6.06967 61.9433 6.06906 62.0382 6.06843C62.139 6.0682 62.2397 6.06798 62.3434 6.06774C62.4499 6.06718 62.5563 6.06662 62.6659 6.06605C63.0186 6.06437 63.3712 6.06338 63.7239 6.06253C63.8456 6.06219 63.9673 6.06184 64.089 6.06148C64.661 6.05987 65.233 6.05866 65.8051 6.05795C66.4638 6.05712 67.1226 6.05489 67.7814 6.05145C68.2915 6.04888 68.8017 6.04763 69.3118 6.04735C69.616 6.04715 69.9202 6.0464 70.2245 6.04425C70.5645 6.04189 70.9044 6.04226 71.2444 6.04285C71.3441 6.04176 71.4438 6.04067 71.5465 6.03955C72.3074 6.04435 72.9485 6.17589 73.5282 6.69343C74.1317 7.37537 74.2069 8.05841 74.1721 8.94291C74.126 9.54279 73.8833 9.94965 73.507 10.4052C72.5968 11.142 71.6326 11.1191 70.5174 11.1061C70.3899 11.1052 70.2624 11.1045 70.1349 11.1038C69.8252 11.1019 69.5155 11.099 69.2058 11.0955C69.2061 11.1749 69.2063 11.2543 69.2065 11.3361C69.2122 13.2721 69.2164 15.2082 69.219 17.1442C69.2203 18.0805 69.2221 19.0168 69.2251 19.9531C69.2276 20.7696 69.2292 21.5861 69.2298 22.4026C69.2301 22.8346 69.2309 23.2665 69.2328 23.6984C69.2345 24.1059 69.235 24.5133 69.2347 24.9208C69.2347 25.0694 69.2352 25.2181 69.2362 25.3668C69.2445 26.6753 69.2196 28.0195 68.2749 29.0302C67.7391 29.5301 67.2764 29.6533 66.5508 29.6385C65.945 29.5826 65.4735 29.335 65.0826 28.8662C64.3701 27.8989 64.4118 26.7866 64.4191 25.6405C64.4192 25.4813 64.4191 25.3221 64.419 25.1629C64.4189 24.7336 64.4204 24.3043 64.4222 23.875C64.4238 23.4253 64.4239 22.9756 64.4242 22.5259C64.425 21.6756 64.4271 20.8253 64.4297 19.975C64.4325 19.0064 64.4339 18.0378 64.4352 17.0693C64.4378 15.078 64.4423 13.0867 64.448 11.0955C64.3731 11.0964 64.2982 11.0973 64.2211 11.0982C63.9387 11.1011 63.6564 11.1032 63.3741 11.1048C63.2527 11.1057 63.1314 11.1068 63.01 11.1083C60.9015 11.1334 60.9015 11.1334 60.115 10.4158C59.5595 9.77086 59.391 9.11982 59.4084 8.28114C59.48 7.63074 59.7208 7.03977 60.2 6.59254C60.7156 6.25341 61.1393 6.07308 61.7589 6.07027Z" fill="#D81E21"/>
<path d="M91.9756 6.33789C94.4407 6.43091 96.9389 7.16388 99.1973 8.12207C99.2598 8.1483 99.3223 8.17453 99.3867 8.20156C100.895 8.84419 102.246 9.72409 103.445 10.8408C103.51 10.9 103.575 10.9591 103.642 11.02C104.842 12.1586 105.616 13.6049 106.079 15.1738C106.108 15.272 106.137 15.3701 106.167 15.4712C106.993 18.8526 105.657 22.4823 103.918 25.3482C103.533 25.971 103.122 26.5691 102.681 27.1533C102.628 27.2237 102.628 27.2237 102.574 27.2955C101.384 28.8752 101.384 28.8752 100.981 29.2773C100.524 29.3249 100.066 29.344 99.606 29.3584C99.4516 29.3645 99.2972 29.3732 99.1431 29.3846C97.9017 29.4744 97.9017 29.4744 97.5123 29.1461C97.1393 28.7041 96.7641 28.0835 96.7334 27.4932C96.809 27.3149 96.809 27.3149 96.9309 27.1361C96.9758 27.0679 97.0207 26.9997 97.0669 26.9294C97.1163 26.8561 97.1657 26.7828 97.2166 26.7073C98.9141 24.0735 100.173 20.8613 99.6061 17.6802C99.308 16.3104 98.599 14.9597 97.4131 14.1543C97.2941 14.1034 97.174 14.0552 97.053 14.0093C96.0793 13.6257 96.0793 13.6257 95.8692 13.1772C95.7151 12.659 95.6473 12.1267 95.5788 11.5917C95.3539 10.0341 94.4664 8.50915 93.335 7.44238C93.2735 7.38335 93.2121 7.32432 93.1488 7.2635C92.8235 6.96498 92.482 6.72479 92.1004 6.50317C92.0386 6.46341 92.0386 6.46341 91.9756 6.42285C91.9756 6.39481 91.9756 6.36678 91.9756 6.33789Z" fill="#0E9D3F"/>
<path d="M80.8457 10.9258C84.8584 10.9258 84.8584 10.9258 86.5348 12.4352C87.3102 13.2422 87.7474 14.3535 87.9824 15.4287C88.0048 15.5271 88.0048 15.5271 88.0277 15.6275C88.1675 16.2997 88.1817 16.9581 88.1789 17.643C88.1788 17.7009 88.1786 17.7588 88.1785 17.8185C88.1734 19.1107 88.0517 20.3377 87.5576 21.5459C87.5239 21.6294 87.4902 21.7128 87.4554 21.7988C86.9654 22.8887 86.0779 23.8368 84.969 24.3038C83.5996 24.8133 82.3285 24.7744 80.8457 24.7744C80.8457 20.2044 80.8457 15.6343 80.8457 10.9258Z" fill="#FEFEFE"/>
<path d="M38.6201 29.8721C38.7008 29.9457 38.7814 30.0193 38.8644 30.0951C39.4264 30.5765 40.0807 30.912 40.7442 31.2314C40.7029 31.6081 40.6612 31.9846 40.6137 32.3605C40.3301 34.6538 40.5395 36.7709 41.9987 38.645C44.8413 42.1336 50.7405 43.1841 54.9462 43.6299C60.2708 44.1443 65.5942 43.3736 70.7141 41.9047C70.8114 41.8769 70.9087 41.8492 71.0089 41.8206C71.1075 41.7916 71.206 41.7626 71.3075 41.7327C71.3598 41.7177 71.412 41.7026 71.4658 41.6871C71.8114 41.5835 72.1408 41.459 72.4731 41.3185C74.0425 40.6777 75.4627 40.6517 77.1274 40.6946C77.4715 40.7026 77.8157 40.7059 78.1598 40.7097C78.8287 40.7178 79.4973 40.7308 80.166 40.7471C79.8924 40.9604 79.646 41.0845 79.3191 41.2044C79.2175 41.2418 79.1159 41.2792 79.0113 41.3178C78.9006 41.3577 78.7899 41.3976 78.6792 41.4374C78.6225 41.4579 78.5657 41.4785 78.5073 41.4996C74.3378 43.0075 70.0488 44.0814 65.6377 44.5703C65.529 44.5824 65.4202 44.5946 65.3082 44.6071C64.9738 44.6437 64.6394 44.6791 64.3049 44.7137C64.2066 44.7238 64.1084 44.734 64.0071 44.7445C62.5598 44.8859 61.1122 44.9302 59.6586 44.9314C59.5355 44.9316 59.5355 44.9316 59.4099 44.9317C57.7657 44.9313 56.1421 44.829 54.5078 44.6553C54.3685 44.641 54.3685 44.641 54.2264 44.6264C49.6033 44.1388 44.1998 42.8628 40.7442 39.5576C40.6797 39.4995 40.6152 39.4413 40.5487 39.3814C38.9515 37.889 38.18 35.6458 38.0888 33.5045C38.0564 32.3355 38.0526 30.9298 38.6201 29.8721Z" fill="#0E9C3D"/>
<path d="M82.8848 34.2049C83.1925 34.3615 83.4193 34.544 83.6494 34.7996C83.8654 34.7 84.0512 34.588 84.2495 34.4545C84.7116 34.1497 85.1504 34.1632 85.6885 34.2049C86.1379 34.3547 86.3512 34.5967 86.623 34.9696C86.706 35.2184 86.7183 35.3765 86.7177 35.6355C86.7176 35.7605 86.7176 35.7605 86.7176 35.888C86.7172 35.9778 86.7168 36.0675 86.7163 36.16C86.7162 36.2521 86.7161 36.3441 86.7159 36.4389C86.7155 36.7333 86.7144 37.0276 86.7133 37.3219C86.7129 37.5213 86.7125 37.7207 86.7122 37.9201C86.7112 38.4093 86.7098 38.8984 86.708 39.3875C86.3155 39.3875 85.923 39.3875 85.5186 39.3875C85.516 39.2242 85.516 39.2242 85.5135 39.0576C85.507 38.6535 85.4995 38.2494 85.4916 37.8453C85.4883 37.6705 85.4854 37.4956 85.4827 37.3207C85.4788 37.0693 85.4739 36.8179 85.4688 36.5666C85.4678 36.4884 85.4668 36.4102 85.4658 36.3297C85.4641 36.2566 85.4624 36.1835 85.4607 36.1082C85.4596 36.044 85.4584 35.9799 85.4573 35.9138C85.4301 35.7081 85.3725 35.5704 85.2637 35.3944C85.0003 35.2627 84.7897 35.2848 84.499 35.3094C84.1979 35.4767 84.0962 35.5878 83.9798 35.9129C83.8962 36.2793 83.8747 36.6156 83.8691 36.9897C83.8675 37.0586 83.8658 37.1276 83.8641 37.1986C83.8591 37.4167 83.8551 37.6348 83.8512 37.8529C83.8479 38.0017 83.8446 38.1504 83.8412 38.2991C83.8331 38.6619 83.826 39.0247 83.8193 39.3875C83.4268 39.3875 83.0343 39.3875 82.6299 39.3875C82.6274 39.2242 82.6274 39.2242 82.6248 39.0576C82.6183 38.6535 82.6108 38.2494 82.6029 37.8453C82.5997 37.6705 82.5967 37.4956 82.594 37.3207C82.5902 37.0693 82.5852 36.8179 82.5801 36.5666C82.5791 36.4884 82.5781 36.4102 82.5771 36.3297C82.5754 36.2566 82.5738 36.1835 82.572 36.1082C82.5709 36.044 82.5697 35.9799 82.5686 35.9138C82.5415 35.7081 82.4838 35.5704 82.375 35.3944C82.1714 35.2926 82.0592 35.3001 81.8334 35.3147C81.7351 35.3188 81.7351 35.3188 81.6349 35.323C81.3983 35.4098 81.3059 35.5331 81.1728 35.743C81.0331 36.0546 81.0493 36.3795 81.0488 36.7159C81.0474 36.7925 81.046 36.8691 81.0446 36.948C81.0404 37.1912 81.0386 37.4344 81.0369 37.6777C81.0345 37.8432 81.0319 38.0087 81.0292 38.1742C81.023 38.5786 81.0187 38.983 81.0156 39.3875C80.5951 39.3875 80.1745 39.3875 79.7412 39.3875C79.7412 37.7053 79.7412 36.0231 79.7412 34.2899C80.1057 34.2899 80.4702 34.2899 80.8457 34.2899C80.8737 34.4581 80.9018 34.6263 80.9307 34.7996C80.9768 34.7638 81.0229 34.728 81.0704 34.6911C81.1312 34.6446 81.192 34.598 81.2546 34.5501C81.3147 34.5037 81.3748 34.4574 81.4368 34.4097C81.8643 34.1146 82.3864 34.1561 82.8848 34.2049Z" fill="#27294E"/>
<path d="M101.162 34.3609C101.861 34.7957 102.236 35.2859 102.475 36.0641C102.631 36.8465 102.549 37.6936 102.146 38.3866C101.754 38.9488 101.302 39.2879 100.641 39.4725C99.878 39.5585 99.2302 39.5135 98.6023 39.0477C97.9594 38.4894 97.7089 37.9458 97.6415 37.1072C97.6056 36.2757 97.7311 35.6432 98.1934 34.943C98.9613 34.2093 100.162 33.9007 101.162 34.3609Z" fill="#282A4F"/>
<path d="M77.783 34.5092C78.3452 34.899 78.7133 35.4156 78.8918 36.0744C78.9915 36.9824 78.966 37.7995 78.4178 38.5525C78.0407 39.0188 77.6247 39.3563 77.0226 39.4728C76.155 39.5436 75.5315 39.4361 74.8349 38.9099C74.3189 38.4384 74.084 37.7809 74.0287 37.0985C74.0093 36.2675 74.1336 35.5878 74.6703 34.9327C75.4858 34.0787 76.7579 33.9119 77.783 34.5092Z" fill="#282A4F"/>
<path d="M91.126 34.4598C91.5525 34.8504 91.7087 35.1472 91.7368 35.7263C91.7398 35.8603 91.7424 35.9944 91.7446 36.1284C91.747 36.2356 91.747 36.2356 91.7494 36.345C91.7543 36.5732 91.7588 36.8015 91.7632 37.0298C91.769 37.3294 91.7753 37.629 91.7818 37.9285C91.7829 37.9965 91.7841 38.0644 91.7853 38.1343C91.7945 38.5577 91.8316 38.968 91.8906 39.3875C91.4981 39.3875 91.1056 39.3875 90.7012 39.3875C90.6451 39.2193 90.589 39.051 90.5313 38.8777C90.4577 38.9443 90.3841 39.0109 90.3083 39.0795C89.848 39.4565 89.394 39.5117 88.8111 39.499C88.4551 39.4586 88.1813 39.3515 87.8975 39.1326C87.5543 38.7014 87.4412 38.3487 87.4491 37.8084C87.5008 37.3583 87.6743 37.0365 88.0236 36.7514C88.3925 36.519 88.8078 36.4206 89.225 36.3077C89.3049 36.2849 89.3849 36.2621 89.4673 36.2386C89.8112 36.1429 90.0861 36.074 90.4463 36.074C90.4247 35.9622 90.4013 35.8508 90.3773 35.7395C90.3645 35.6774 90.3517 35.6153 90.3385 35.5513C90.318 35.4995 90.2975 35.4477 90.2764 35.3943C89.8991 35.2686 89.5189 35.2535 89.14 35.3731C88.9648 35.4919 88.9648 35.4919 88.8321 35.8191C88.2433 35.7771 88.2433 35.7771 87.6426 35.7342C87.7419 35.1382 87.9117 34.7976 88.3903 34.4259C89.1382 34.0164 90.4008 34.0356 91.126 34.4598Z" fill="#282A4F"/>
<path d="M64.2035 34.5038C64.4667 34.7113 64.5977 34.9076 64.7034 35.2247C64.7144 35.458 64.7211 35.6895 64.7243 35.923C64.7271 36.065 64.7299 36.207 64.7327 36.3491C64.7367 36.5718 64.7405 36.7946 64.7439 37.0173C64.7567 37.8255 64.7797 38.5954 64.9582 39.3878C64.5657 39.3878 64.1732 39.3878 63.7688 39.3878C63.7127 39.2196 63.6566 39.0513 63.5989 38.878C63.5205 38.9317 63.5205 38.9317 63.4406 38.9865C63.3719 39.0331 63.3032 39.0796 63.2325 39.1276C63.1645 39.1739 63.0964 39.2202 63.0264 39.268C62.5753 39.5492 62.0745 39.5314 61.5598 39.4727C61.1682 39.3173 60.8358 39.0797 60.6252 38.7081C60.4561 38.2007 60.4538 37.6318 60.6677 37.1416C61.1583 36.6388 61.7154 36.4212 62.3882 36.2602C62.4593 36.2418 62.5303 36.2235 62.6036 36.2046C62.9232 36.1243 63.1807 36.0743 63.5139 36.0743C63.4392 35.6737 63.4392 35.6737 63.2059 35.3574C62.9064 35.2865 62.6267 35.2491 62.3245 35.3096C62.0958 35.4945 61.9459 35.6419 61.8147 35.9044C61.4222 35.8483 61.0296 35.7922 60.6252 35.7345C60.8025 35.1092 60.9728 34.7718 61.5226 34.3963C62.304 33.9956 63.4553 34.0815 64.2035 34.5038Z" fill="#27294E"/>
<path d="M96.1387 28.2578C96.359 28.4502 96.478 28.5965 96.5977 28.8665C96.8063 29.3372 96.8063 29.3372 97.1582 29.7021C97.6618 29.873 98.2033 29.8634 98.73 29.8669C99.0317 29.8742 99.3236 29.9138 99.6221 29.957C99.3022 30.2908 98.9629 30.5775 98.5972 30.8597C98.5453 30.9003 98.4933 30.9408 98.4398 30.9825C98.3891 31.022 98.3384 31.0614 98.2863 31.102C98.2382 31.1398 98.1901 31.1775 98.1406 31.2164C98.0078 31.3164 98.0078 31.3164 97.8001 31.4435C97.645 31.5654 97.645 31.5654 97.6504 31.7834C97.667 31.9071 97.667 31.9071 97.6839 32.0333C97.6946 32.123 97.7054 32.2127 97.7164 32.3051C97.7285 32.3994 97.7405 32.4937 97.7529 32.5908C97.7698 32.7819 97.7857 32.9731 97.8007 33.1643C97.8078 33.2497 97.815 33.3352 97.8223 33.4232C97.83 33.5158 97.83 33.5158 97.8379 33.6104C97.7422 33.5398 97.6466 33.4689 97.5511 33.3979C97.4896 33.3523 97.428 33.3066 97.3646 33.2596C97.2189 33.1474 97.0762 33.0312 96.9358 32.9124C96.8251 32.8189 96.8251 32.8189 96.7122 32.7236C96.6434 32.6641 96.5746 32.6046 96.5037 32.5434C96.3243 32.4025 96.3243 32.4025 96.1506 32.4389C95.9295 32.5203 95.7709 32.633 95.5824 32.7743C95.5107 32.8277 95.439 32.8811 95.3651 32.9361C95.2909 32.9922 95.2168 33.0482 95.1404 33.1059C95.0272 33.1904 95.0272 33.1904 94.9117 33.2766C94.7256 33.4157 94.5399 33.5553 94.3545 33.6953C94.2443 33.475 94.2881 33.4015 94.3542 33.1676C94.3736 33.0969 94.393 33.0261 94.4131 32.9532C94.434 32.8792 94.455 32.8052 94.4766 32.7289C94.5176 32.5832 94.5582 32.4374 94.5984 32.2915C94.6168 32.2267 94.6351 32.1619 94.654 32.0952C94.7065 31.8872 94.7065 31.8872 94.6943 31.5713C94.5118 31.4037 94.3358 31.26 94.1368 31.1146C94.0275 31.032 93.9183 30.9492 93.8092 30.8664C93.7566 30.8269 93.704 30.7874 93.6498 30.7467C93.3924 30.5514 93.1497 30.3437 92.9102 30.127C92.9102 30.0989 92.9102 30.0709 92.9102 30.042C93.7316 29.9235 94.5452 29.8356 95.374 29.7871C95.3942 29.7438 95.4143 29.7005 95.4351 29.6559C95.526 29.4606 95.6173 29.2654 95.7086 29.0703C95.7403 29.0021 95.772 28.9339 95.8046 28.8637C95.835 28.7988 95.8654 28.7339 95.8967 28.667C95.9388 28.5769 95.9388 28.5769 95.9817 28.485C96.0537 28.3428 96.0537 28.3428 96.1387 28.2578Z" fill="#FDEC11"/>
<path d="M65.8076 34.29C66.2282 34.29 66.6487 34.29 67.082 34.29C67.0833 34.3959 67.0845 34.5018 67.0858 34.6109C67.0907 35.0044 67.0973 35.3978 67.1043 35.7913C67.1072 35.9614 67.1095 36.1316 67.1115 36.3018C67.1143 36.5467 67.1188 36.7915 67.1235 37.0363C67.1241 37.1122 67.1246 37.1881 67.1252 37.2662C67.1346 37.6685 67.149 37.9635 67.4219 38.2832C67.7679 38.3897 67.983 38.376 68.3352 38.2938C68.6423 38.0931 68.7104 37.9559 68.8154 37.6115C68.9323 37.0071 68.9163 36.3852 68.9246 35.7715C68.9275 35.6277 68.9304 35.4838 68.9334 35.3399C68.9406 34.99 68.9463 34.64 68.9512 34.29C69.3437 34.29 69.7362 34.29 70.1406 34.29C70.1406 35.9723 70.1406 37.6545 70.1406 39.3877C69.7761 39.3877 69.4117 39.3877 69.0361 39.3877C68.9941 39.0933 68.9941 39.0933 68.9512 38.793C68.8957 38.8452 68.8957 38.8452 68.839 38.8985C68.2988 39.3873 67.8616 39.5103 67.1345 39.4936C66.7001 39.4527 66.4749 39.2886 66.1687 38.9894C65.7595 38.4548 65.7838 37.7861 65.791 37.1442C65.7913 37.0622 65.7915 36.9802 65.7918 36.8957C65.7927 36.636 65.7948 36.3764 65.797 36.1167C65.7979 35.9397 65.7986 35.7627 65.7993 35.5857C65.8012 35.1538 65.8041 34.7219 65.8076 34.29Z" fill="#27294E"/>
<path d="M106.716 34.2602C107.156 34.455 107.33 34.7053 107.523 35.1397C107.6 35.3908 107.619 35.6147 107.618 35.8769C107.618 35.9551 107.618 36.0333 107.618 36.1139C107.618 36.1976 107.617 36.2814 107.617 36.3676C107.617 36.4539 107.616 36.5402 107.616 36.6291C107.616 36.9043 107.615 37.1796 107.614 37.4549C107.613 37.6416 107.613 37.8284 107.613 38.0151C107.612 38.4726 107.61 38.9302 107.608 39.3877C107.188 39.3877 106.767 39.3877 106.334 39.3877C106.332 39.2788 106.33 39.17 106.328 39.0578C106.32 38.6537 106.311 38.2496 106.302 37.8455C106.299 37.6707 106.295 37.4958 106.292 37.3209C106.287 37.0695 106.281 36.8182 106.276 36.5668C106.274 36.4886 106.273 36.4105 106.272 36.3299C106.269 36.2203 106.269 36.2203 106.266 36.1084C106.264 36.0121 106.264 36.0121 106.262 35.914C106.249 35.7323 106.213 35.5696 106.164 35.3946C105.847 35.293 105.561 35.2753 105.229 35.3096C104.934 35.4804 104.745 35.6594 104.635 35.9893C104.625 36.1027 104.62 36.2164 104.617 36.3302C104.616 36.3982 104.614 36.4662 104.612 36.5363C104.61 36.6459 104.61 36.6459 104.608 36.7576C104.606 36.8327 104.604 36.9077 104.603 36.9851C104.597 37.2249 104.592 37.4647 104.587 37.7044C104.583 37.867 104.58 38.0296 104.576 38.1921C104.567 38.5907 104.558 38.9892 104.55 39.3877C104.157 39.3877 103.765 39.3877 103.36 39.3877C103.36 37.7055 103.36 36.0233 103.36 34.2901C103.725 34.2901 104.089 34.2901 104.465 34.2901C104.493 34.4583 104.521 34.6265 104.55 34.7998C104.62 34.7461 104.62 34.7461 104.693 34.6913C104.785 34.6215 104.785 34.6215 104.879 34.5503C104.94 34.5039 105.001 34.4576 105.064 34.4099C105.524 34.0766 106.182 34.1214 106.716 34.2602Z" fill="#27294E"/>
<path d="M72.6895 32.5059C72.6895 33.0946 72.6895 33.6834 72.6895 34.29C72.9979 34.29 73.3063 34.29 73.624 34.29C73.624 34.6545 73.624 35.019 73.624 35.3945C73.3156 35.3945 73.0072 35.3945 72.6895 35.3945C72.7175 36.3478 72.7455 37.3011 72.7744 38.2832C73.0548 38.2832 73.3352 38.2832 73.624 38.2832C73.624 38.6477 73.624 39.0122 73.624 39.3877C73.3312 39.4853 73.0936 39.49 72.785 39.4939C72.6819 39.4961 72.5787 39.4983 72.4724 39.5005C72.0871 39.4638 71.8678 39.3388 71.6062 39.0585C71.3681 38.6537 71.4036 38.1991 71.4067 37.7426C71.4069 37.6753 71.407 37.608 71.4071 37.5387C71.4076 37.3249 71.4086 37.1111 71.4097 36.8973C71.4102 36.7519 71.4105 36.6064 71.4109 36.461C71.4118 36.1055 71.4133 35.75 71.415 35.3945C71.2188 35.3945 71.0225 35.3945 70.8203 35.3945C70.8203 35.03 70.8203 34.6656 70.8203 34.29C71.0166 34.29 71.2128 34.29 71.415 34.29C71.4032 34.1977 71.4032 34.1977 71.3911 34.1035C71.342 33.4451 71.342 33.4451 71.5485 33.1919C71.7249 33.062 71.9035 32.9524 72.0947 32.8457C72.1926 32.7792 72.29 32.712 72.3868 32.6439C72.6045 32.5059 72.6045 32.5059 72.6895 32.5059Z" fill="#292B50"/>
<path d="M94.0996 32.5059C94.0996 33.0946 94.0996 33.6834 94.0996 34.29C94.38 34.29 94.6604 34.29 94.9492 34.29C94.9492 34.6545 94.9492 35.019 94.9492 35.3945C94.6688 35.3945 94.3885 35.3945 94.0996 35.3945C94.1276 36.3758 94.1557 37.3571 94.1846 38.3682C94.6051 38.3261 94.6051 38.3261 95.0342 38.2832C95.0342 38.6477 95.0342 39.0122 95.0342 39.3877C94.5089 39.5628 93.892 39.5401 93.3668 39.3771C93.0358 39.1157 92.9011 38.7744 92.8252 38.3682C92.8181 38.1395 92.8153 37.9131 92.8169 37.6845C92.817 37.619 92.8171 37.5534 92.8173 37.4859C92.8177 37.2773 92.8188 37.0687 92.8199 36.8601C92.8203 36.7184 92.8207 36.5767 92.821 36.435C92.822 36.0882 92.8234 35.7413 92.8252 35.3945C92.6289 35.3945 92.4327 35.3945 92.2305 35.3945C92.2305 35.03 92.2305 34.6656 92.2305 34.29C92.4267 34.29 92.623 34.29 92.8252 34.29C92.8144 34.2305 92.8035 34.1709 92.7923 34.1095C92.7635 33.8334 92.7597 33.6264 92.8252 33.3555C93.1016 33.0676 93.4157 32.8744 93.7598 32.6758C94.0146 32.5059 94.0146 32.5059 94.0996 32.5059Z" fill="#2B2D52"/>
<path d="M95.6289 34.29C96.0214 34.29 96.4139 34.29 96.8184 34.29C96.8184 35.9723 96.8184 37.6545 96.8184 39.3877C96.4258 39.3877 96.0333 39.3877 95.6289 39.3877C95.6289 37.7055 95.6289 36.0232 95.6289 34.29Z" fill="#24264A"/>
<path d="M100.657 35.3679C100.982 35.6032 101.164 35.9408 101.236 36.329C101.279 36.9758 101.299 37.5913 100.854 38.1026C100.51 38.3947 100.273 38.398 99.8324 38.391C99.5216 38.3572 99.3953 38.2684 99.1972 38.0282C98.8765 37.4201 98.8055 36.6945 99.007 36.031C99.1542 35.7156 99.3098 35.4807 99.622 35.3095C99.9859 35.1882 100.295 35.254 100.657 35.3679Z" fill="#FCFCFC"/>
<path d="M76.9375 35.3096C77.3135 35.5176 77.4532 35.7693 77.6172 36.1592C77.6877 36.8004 77.7205 37.4724 77.3623 38.0283C77.1692 38.2565 77.0343 38.351 76.739 38.4034C76.3516 38.4255 76.136 38.3962 75.7958 38.1983C75.3855 37.7179 75.2762 37.25 75.2993 36.6228C75.3533 36.1513 75.4873 35.8407 75.7958 35.4795C76.1861 35.2524 76.4959 35.2306 76.9375 35.3096Z" fill="#FDFDFD"/>
<path d="M63.5135 37.0088C63.5632 37.8531 63.5632 37.8531 63.2586 38.1982C62.8871 38.4431 62.5957 38.5022 62.1541 38.4531C61.947 38.3629 61.947 38.3629 61.8143 38.1982C61.7517 37.6974 61.7517 37.6974 61.9039 37.4691C62.149 37.2905 62.4216 37.2333 62.7117 37.1628C62.7699 37.1477 62.8281 37.1327 62.8881 37.1171C63.3144 37.0088 63.3144 37.0088 63.5135 37.0088Z" fill="#F8F8F9"/>
<path d="M90.4465 37.0088C90.4993 37.7645 90.4993 37.7645 90.3031 38.1133C90.0173 38.3605 89.7997 38.4384 89.427 38.485C89.0993 38.444 88.9668 38.3586 88.7473 38.1133C88.6995 37.8531 88.6995 37.8531 88.7473 37.6035C89.021 37.3372 89.3299 37.2615 89.6925 37.1628C89.7978 37.1335 89.9032 37.1043 90.0117 37.0742C90.2766 37.0088 90.2766 37.0088 90.4465 37.0088Z" fill="#FBFBFB"/>
<path d="M94.0148 32.5059C94.0428 32.5059 94.0709 32.5059 94.0998 32.5059C94.0998 33.0946 94.0998 33.6834 94.0998 34.29C94.3801 34.29 94.6605 34.29 94.9494 34.29C94.9494 34.6545 94.9494 35.019 94.9494 35.3945C94.669 35.3945 94.3886 35.3945 94.0998 35.3945C94.1278 36.3758 94.1558 37.3571 94.1847 38.3682C94.1286 38.3401 94.0726 38.3121 94.0148 38.2832C93.9188 37.9505 93.9189 37.6254 93.9185 37.2809C93.9184 37.1168 93.9184 37.1168 93.9182 36.9494C93.9184 36.8929 93.9186 36.8365 93.9188 36.7783C93.9192 36.6046 93.9188 36.4308 93.9182 36.2571C93.9183 36.1481 93.9184 36.0391 93.9185 35.9269C93.9186 35.8268 93.9187 35.7267 93.9188 35.6236C93.9298 35.3945 93.9298 35.3945 94.0148 35.3096C94.2982 35.2975 94.5806 35.306 94.8644 35.3096C94.8644 35.0012 94.8644 34.6928 94.8644 34.375C94.6568 34.3776 94.6568 34.3776 94.4449 34.3803C94.3015 34.3821 94.158 34.3811 94.0148 34.375C93.8223 34.1825 93.8856 33.7481 93.8714 33.4882C93.8663 33.413 93.8612 33.3378 93.856 33.2604C93.852 33.1885 93.848 33.1166 93.8439 33.0425C93.84 32.9763 93.8361 32.9101 93.832 32.8419C93.8449 32.6758 93.8449 32.6758 94.0148 32.5059Z" fill="#141538"/>
<path d="M77.5276 40.7386C77.6037 40.7387 77.6798 40.7388 77.7582 40.7389C77.998 40.7394 78.2377 40.7405 78.4774 40.7415C78.6414 40.742 78.8053 40.7424 78.9693 40.7427C79.3682 40.7436 79.7671 40.7451 80.166 40.7468C79.8824 40.9768 79.6814 41.0452 79.3164 41.0867C79.3164 41.0587 79.3164 41.0306 79.3164 41.0017C77.5921 40.9597 77.5921 40.9597 75.833 40.9168C75.833 40.8887 75.833 40.8607 75.833 40.8318C76.4001 40.7654 76.9569 40.7351 77.5276 40.7386Z" fill="#079937"/>
<path d="M72.6895 32.5059C72.6895 33.0946 72.6895 33.6834 72.6895 34.29C72.9979 34.29 73.3063 34.29 73.624 34.29C73.624 34.6545 73.624 35.019 73.624 35.3945C73.2876 35.3945 72.9511 35.3945 72.6045 35.3945C72.6045 35.3665 72.6045 35.3385 72.6045 35.3096C72.8849 35.3096 73.1652 35.3096 73.4541 35.3096C73.4541 35.0012 73.4541 34.6928 73.4541 34.375C73.2465 34.3776 73.2465 34.3776 73.0346 34.3803C72.8912 34.3821 72.7477 34.3811 72.6045 34.375C72.4244 34.1949 72.484 33.8126 72.4717 33.5626C72.4662 33.4598 72.4662 33.4598 72.4606 33.355C72.4516 33.1852 72.443 33.0155 72.4346 32.8457C72.3785 32.8177 72.3224 32.7896 72.2646 32.7607C72.5939 32.5059 72.5939 32.5059 72.6895 32.5059Z" fill="#232544"/>
<path d="M91.9756 6.33765C92.5385 6.32703 92.5385 6.32703 92.8252 6.42262C92.834 6.4892 92.8427 6.55579 92.8517 6.6244C92.8911 6.8755 92.8911 6.8755 93.165 7.01734C93.137 7.07342 93.109 7.12949 93.0801 7.18726C92.9436 7.09378 92.8073 6.99989 92.6712 6.90583C92.5953 6.85359 92.5194 6.80135 92.4412 6.74752C92.2678 6.61997 92.1213 6.49501 91.9756 6.33765Z" fill="#0F912E"/>
<path d="M61.0498 6.33808C60.9289 6.36962 60.9289 6.36962 60.8055 6.4018C60.4994 6.52424 60.4956 6.5634 60.3701 6.84784C60.1471 7.039 60.1471 7.039 59.9453 7.18769C59.9173 7.13161 59.8892 7.07554 59.8604 7.01776C60.1363 6.62033 60.5351 6.1665 61.0498 6.33808Z" fill="#D6171A"/>
<path d="M61.7295 36.6689C61.6191 36.7136 61.6191 36.7136 61.5065 36.7592C61.1576 36.9594 60.9531 37.2038 60.71 37.5185C60.6819 37.4344 60.6539 37.3503 60.625 37.2637C61.188 36.4755 61.188 36.4755 61.7295 36.6689Z" fill="#17173C"/>
<path d="M43.7178 28.6826C43.7178 28.9375 43.7178 28.9375 43.6026 29.0709C43.0868 29.5087 43.0868 29.5087 42.6982 29.5322C42.8909 29.228 43.0488 29.1509 43.3779 29.0225C43.571 28.8508 43.571 28.8508 43.7178 28.6826Z" fill="#D31011"/>
<path d="M79.4014 40.7471C79.6537 40.7471 79.906 40.7471 80.166 40.7471C79.8939 40.9878 79.6749 41.0462 79.3164 41.0869C79.3444 40.9748 79.3725 40.8626 79.4014 40.7471Z" fill="#119234"/>
<path d="M88.4922 7.6123C88.807 7.66357 88.99 7.80132 89.2356 7.99994C89.3374 8.08159 89.3374 8.08159 89.4414 8.16488C89.5182 8.2278 89.5182 8.2278 89.5967 8.29199C89.5406 8.34807 89.4845 8.40414 89.4268 8.46191C89.3469 8.38832 89.3469 8.38832 89.2655 8.31323C89.196 8.25015 89.1266 8.18707 89.0551 8.12207C88.9861 8.05899 88.9171 7.9959 88.846 7.93091C88.6795 7.76442 88.6795 7.76442 88.4922 7.78223C88.4922 7.72615 88.4922 7.67008 88.4922 7.6123Z" fill="#D5191A"/>
</g>
</g>
<defs>
<clipPath id="clip0_274_185">
<rect width="144" height="48" rx="10" fill="white"/>
</clipPath>
<clipPath id="clip1_274_185">
<rect width="87" height="87" fill="white" transform="translate(28 -20)"/>
</clipPath>
</defs>
</svg>
